<?xml version="1.0" encoding="UTF-8" standalone="no"?>
<svg
   id="visual"
   viewBox="0 0 900 242"
   width="900"
   height="242"
   version="1.1"
   sodipodi:docname="layered-waves-haikei.svg"
   inkscape:version="1.1 (c68e22c387, 2021-05-23)"
   xmlns:inkscape="http://www.inkscape.org/namespaces/inkscape"
   xmlns:sodipodi="http://sodipodi.sourceforge.net/DTD/sodipodi-0.dtd"
   xmlns="http://www.w3.org/2000/svg"
   xmlns:svg="http://www.w3.org/2000/svg">
  <defs
     id="defs17" />
  <sodipodi:namedview
     id="namedview15"
     pagecolor="#505050"
     bordercolor="#eeeeee"
     borderopacity="1"
     inkscape:pageshadow="0"
     inkscape:pageopacity="0"
     inkscape:pagecheckerboard="0"
     showgrid="false"
     height="242px"
     inkscape:zoom="0.88333333"
     inkscape:cx="397.92453"
     inkscape:cy="143.20755"
     inkscape:window-width="1366"
     inkscape:window-height="715"
     inkscape:window-x="-8"
     inkscape:window-y="-8"
     inkscape:window-maximized="1"
     inkscape:current-layer="visual" />
  <g
     id="g25"
     transform="matrix(1,0,0,0.96414343,0,-337.4502)">
    <rect
       x="0"
       y="350"
       width="900"
       height="249.24345"
       fill="#000008"
       id="rect2"
       style="stroke-width:0.64452" />
    <path
       d="m 0,369 21.5,7.8 c 21.5,7.9 64.5,23.5 107.3,28.9 42.9,5.3 85.5,0.3 128.4,-2.9 42.8,-3.1 85.8,-4.5 128.6,-8.6 42.9,-4.2 85.5,-11.2 128.4,-13 42.8,-1.9 85.8,1.5 128.6,13.1 42.9,11.7 85.5,31.7 128.4,29 42.8,-2.6 85.8,-28 107.3,-40.6 L 900,370 v 231 h -21.5 c -21.5,0 -64.5,0 -107.3,0 -42.9,0 -85.5,0 -128.4,0 -42.8,0 -85.8,0 -128.6,0 -42.9,0 -85.5,0 -128.4,0 -42.8,0 -85.8,0 -128.6,0 -42.9,0 -85.5,0 -128.4,0 C 86,601 43,601 21.5,601 H 0 Z"
       fill="#f2e029"
       id="path4" />
    <path
       d="m 0,397 21.5,7 c 21.5,7 64.5,21 107.3,32.8 42.9,11.9 85.5,21.5 128.4,27.7 42.8,6.2 85.8,8.8 128.6,4 42.9,-4.8 85.5,-17.2 128.4,-28.7 42.8,-11.5 85.8,-22.1 128.6,-23.6 42.9,-1.5 85.5,6.1 128.4,10.3 42.8,4.2 85.8,4.8 107.3,5.2 L 900,432 v 169 h -21.5 c -21.5,0 -64.5,0 -107.3,0 -42.9,0 -85.5,0 -128.4,0 -42.8,0 -85.8,0 -128.6,0 -42.9,0 -85.5,0 -128.4,0 -42.8,0 -85.8,0 -128.6,0 -42.9,0 -85.5,0 -128.4,0 C 86,601 43,601 21.5,601 H 0 Z"
       fill="#ffb120"
       id="path6" />
    <path
       d="m 0,444 21.5,7.3 c 21.5,7.4 64.5,22 107.3,31.5 42.9,9.5 85.5,13.9 128.4,9.9 42.8,-4 85.8,-16.4 128.6,-16.7 42.9,-0.3 85.5,11.3 128.4,8.2 C 557,481 600,463 642.8,461.7 c 42.9,-1.4 85.5,14 128.4,21.1 42.8,7.2 85.8,6.2 107.3,5.7 L 900,488 v 113 h -21.5 c -21.5,0 -64.5,0 -107.3,0 -42.9,0 -85.5,0 -128.4,0 -42.8,0 -85.8,0 -128.6,0 -42.9,0 -85.5,0 -128.4,0 -42.8,0 -85.8,0 -128.6,0 -42.9,0 -85.5,0 -128.4,0 C 86,601 43,601 21.5,601 H 0 Z"
       fill="#ff8235"
       id="path8" />
    <path
       d="m 0,512 21.5,-1 c 21.5,-1 64.5,-3 107.3,-4.3 42.9,-1.4 85.5,-2 128.4,-3.2 42.8,-1.2 85.8,-2.8 128.6,-0.8 42.9,2 85.5,7.6 128.4,9.1 42.8,1.5 85.8,-1.1 128.6,-3 42.9,-1.8 85.5,-2.8 128.4,-6 42.8,-3.1 85.8,-8.5 107.3,-11.1 L 900,489 v 112 h -21.5 c -21.5,0 -64.5,0 -107.3,0 -42.9,0 -85.5,0 -128.4,0 -42.8,0 -85.8,0 -128.6,0 -42.9,0 -85.5,0 -128.4,0 -42.8,0 -85.8,0 -128.6,0 -42.9,0 -85.5,0 -128.4,0 C 86,601 43,601 21.5,601 H 0 Z"
       fill="#ff5151"
       id="path10" />
    <path
       d="m 0,573 21.5,-7.7 C 43,557.7 86,542.3 128.8,539 c 42.9,-3.3 85.5,5.3 128.4,12 42.8,6.7 85.8,11.3 128.6,9.2 42.9,-2.2 85.5,-11.2 128.4,-17.4 42.8,-6.1 85.8,-9.5 128.6,-5 42.9,4.5 85.5,16.9 128.4,18.4 42.8,1.5 85.8,-7.9 107.3,-12.5 L 900,539 v 62 h -21.5 c -21.5,0 -64.5,0 -107.3,0 -42.9,0 -85.5,0 -128.4,0 -42.8,0 -85.8,0 -128.6,0 -42.9,0 -85.5,0 -128.4,0 -42.8,0 -85.8,0 -128.6,0 -42.9,0 -85.5,0 -128.4,0 C 86,601 43,601 21.5,601 H 0 Z"
       fill="#f31173"
       id="path12" />
  </g>
</svg>
